<svg width="148" height="141" viewBox="0 0 148 141" fill="none" xmlns="http://www.w3.org/2000/svg">
<path fill-rule="evenodd" clip-rule="evenodd" d="M39.464 36.3403C39.464 36.3403 6.31235 45.2098 0 76.5948C0 76.5948 17.6347 84.0283 41.0042 73.014" fill="#979797"/>
<path fill-rule="evenodd" clip-rule="evenodd" d="M108.536 36.3403C108.536 36.3403 141.687 45.2098 148 76.5948C148 76.5948 130.365 84.0283 106.996 73.014" fill="#979797"/>
<path d="M74.7297 140.285C102.306 140.285 124.662 111.542 124.662 76.0866C124.662 40.631 102.306 11.8885 74.7297 11.8885C47.1531 11.8885 24.7979 40.631 24.7979 76.0866C24.7979 111.542 47.1531 140.285 74.7297 140.285Z" fill="#D8D8D8"/>
<path d="M43.8197 38.0433C50.3855 38.0433 55.7082 32.7207 55.7082 26.1548C55.7082 19.5889 50.3855 14.2663 43.8197 14.2663C37.2538 14.2663 31.9312 19.5889 31.9312 26.1548C31.9312 32.7207 37.2538 38.0433 43.8197 38.0433Z" fill="#ECECEC"/>
<path d="M108.018 38.0433C114.584 38.0433 119.906 32.7207 119.906 26.1548C119.906 19.5889 114.584 14.2663 108.018 14.2663C101.452 14.2663 96.1294 19.5889 96.1294 26.1548C96.1294 32.7207 101.452 38.0433 108.018 38.0433Z" fill="#ECECEC"/>
<path d="M58.0858 45.1765C64.6517 45.1765 69.9743 39.8538 69.9743 33.2879C69.9743 26.7221 64.6517 21.3994 58.0858 21.3994C51.5199 21.3994 46.1973 26.7221 46.1973 33.2879C46.1973 39.8538 51.5199 45.1765 58.0858 45.1765Z" fill="#ECECEC"/>
<path d="M72.3522 38.0433C78.918 38.0433 84.2407 32.7207 84.2407 26.1548C84.2407 19.5889 78.918 14.2663 72.3522 14.2663C65.7863 14.2663 60.4636 19.5889 60.4636 26.1548C60.4636 32.7207 65.7863 38.0433 72.3522 38.0433Z" fill="#ECECEC"/>
<path d="M58.0858 23.7771C64.6517 23.7771 69.9743 18.4544 69.9743 11.8885C69.9743 5.32268 64.6517 0 58.0858 0C51.5199 0 46.1973 5.32268 46.1973 11.8885C46.1973 18.4544 51.5199 23.7771 58.0858 23.7771Z" fill="#ECECEC"/>
<path d="M74.7296 23.7771C81.2955 23.7771 86.6181 18.4544 86.6181 11.8885C86.6181 5.32268 81.2955 0 74.7296 0C68.1637 0 62.8411 5.32268 62.8411 11.8885C62.8411 18.4544 68.1637 23.7771 74.7296 23.7771Z" fill="#ECECEC"/>
<path d="M93.7516 38.0433C100.317 38.0433 105.64 32.7207 105.64 26.1548C105.64 19.5889 100.317 14.2663 93.7516 14.2663C87.1857 14.2663 81.863 19.5889 81.863 26.1548C81.863 32.7207 87.1857 38.0433 93.7516 38.0433Z" fill="#ECECEC"/>
<path d="M93.7516 23.7771C100.317 23.7771 105.64 18.4544 105.64 11.8885C105.64 5.32268 100.317 0 93.7516 0C87.1857 0 81.863 5.32268 81.863 11.8885C81.863 18.4544 87.1857 23.7771 93.7516 23.7771Z" fill="#ECECEC"/>
<path fill-rule="evenodd" clip-rule="evenodd" d="M75.7174 119.75C77.5745 121.607 86.47 120.478 89.72 117.228C92.9699 113.978 91.7213 109.838 89.8642 107.981C88.0071 106.124 81.4893 107.253 78.2394 110.503C74.9894 113.753 73.8603 117.893 75.7174 119.75Z" fill="#595959"/>
<path fill-rule="evenodd" clip-rule="evenodd" d="M73.2179 119.751C71.3608 121.608 62.4653 120.479 59.2154 117.229C55.9654 113.979 57.214 109.839 59.0711 107.981C60.9282 106.124 67.446 107.253 70.6959 110.503C73.9459 113.753 75.075 117.893 73.2179 119.751Z" fill="#595959"/>
<path d="M53.3307 76.0866C58.5833 76.0866 62.8415 71.8285 62.8415 66.5758C62.8415 61.3231 58.5833 57.0649 53.3307 57.0649C48.078 57.0649 43.8198 61.3231 43.8198 66.5758C43.8198 71.8285 48.078 76.0866 53.3307 76.0866Z" fill="white"/>
<path d="M53.3304 71.3312C55.9567 71.3312 58.0858 69.2021 58.0858 66.5758C58.0858 63.9494 55.9567 61.8204 53.3304 61.8204C50.704 61.8204 48.575 63.9494 48.575 66.5758C48.575 69.2021 50.704 71.3312 53.3304 71.3312Z" fill="#595959"/>
<path d="M93.7516 76.0866C99.0042 76.0866 103.262 71.8285 103.262 66.5758C103.262 61.3231 99.0042 57.0649 93.7516 57.0649C88.4989 57.0649 84.2407 61.3231 84.2407 66.5758C84.2407 71.8285 88.4989 76.0866 93.7516 76.0866Z" fill="white"/>
<path d="M93.7513 71.3312C96.3776 71.3312 98.5067 69.2021 98.5067 66.5758C98.5067 63.9494 96.3776 61.8204 93.7513 61.8204C91.1249 61.8204 88.9958 63.9494 88.9958 66.5758C88.9958 69.2021 91.1249 71.3312 93.7513 71.3312Z" fill="#595959"/>
</svg>
