<svg width="53" height="50" viewBox="0 0 53 50" fill="none" xmlns="http://www.w3.org/2000/svg">
<path fill-rule="evenodd" clip-rule="evenodd" d="M14.0657 12.9523C14.0657 12.9523 2.24983 16.1136 0 27.2998C0 27.2998 6.28533 29.9492 14.6146 26.0235" fill="#979797"/>
<path fill-rule="evenodd" clip-rule="evenodd" d="M38.6842 12.9523C38.6842 12.9523 50.5 16.1136 52.7499 27.2998C52.7499 27.2998 46.4646 29.9492 38.1352 26.0235" fill="#979797"/>
<path d="M26.6351 50C36.4639 50 44.4317 39.7557 44.4317 27.1187C44.4317 14.4816 36.4639 4.2373 26.6351 4.2373C16.8063 4.2373 8.8385 14.4816 8.8385 27.1187C8.8385 39.7557 16.8063 50 26.6351 50Z" fill="#D8D8D8"/>
<path d="M15.6181 13.5593C17.9583 13.5593 19.8554 11.6622 19.8554 9.32204C19.8554 6.98185 17.9583 5.08475 15.6181 5.08475C13.278 5.08475 11.3809 6.98185 11.3809 9.32204C11.3809 11.6622 13.278 13.5593 15.6181 13.5593Z" fill="#ECECEC"/>
<path d="M38.4995 13.5593C40.8397 13.5593 42.7368 11.6622 42.7368 9.32204C42.7368 6.98185 40.8397 5.08475 38.4995 5.08475C36.1593 5.08475 34.2622 6.98185 34.2622 9.32204C34.2622 11.6622 36.1593 13.5593 38.4995 13.5593Z" fill="#ECECEC"/>
<path d="M20.7029 16.1017C23.0431 16.1017 24.9402 14.2046 24.9402 11.8644C24.9402 9.52423 23.0431 7.62714 20.7029 7.62714C18.3627 7.62714 16.4656 9.52423 16.4656 11.8644C16.4656 14.2046 18.3627 16.1017 20.7029 16.1017Z" fill="#ECECEC"/>
<path d="M25.7876 13.5593C28.1278 13.5593 30.0249 11.6622 30.0249 9.32204C30.0249 6.98185 28.1278 5.08475 25.7876 5.08475C23.4474 5.08475 21.5503 6.98185 21.5503 9.32204C21.5503 11.6622 23.4474 13.5593 25.7876 13.5593Z" fill="#ECECEC"/>
<path d="M20.7029 8.47458C23.0431 8.47458 24.9402 6.57748 24.9402 4.23729C24.9402 1.8971 23.0431 0 20.7029 0C18.3627 0 16.4656 1.8971 16.4656 4.23729C16.4656 6.57748 18.3627 8.47458 20.7029 8.47458Z" fill="#ECECEC"/>
<path d="M26.6351 8.47458C28.9753 8.47458 30.8724 6.57748 30.8724 4.23729C30.8724 1.8971 28.9753 0 26.6351 0C24.2949 0 22.3978 1.8971 22.3978 4.23729C22.3978 6.57748 24.2949 8.47458 26.6351 8.47458Z" fill="#ECECEC"/>
<path d="M33.4148 13.5593C35.755 13.5593 37.6521 11.6622 37.6521 9.32204C37.6521 6.98185 35.755 5.08475 33.4148 5.08475C31.0746 5.08475 29.1775 6.98185 29.1775 9.32204C29.1775 11.6622 31.0746 13.5593 33.4148 13.5593Z" fill="#ECECEC"/>
<path d="M33.4148 8.47458C35.755 8.47458 37.6521 6.57748 37.6521 4.23729C37.6521 1.8971 35.755 0 33.4148 0C31.0746 0 29.1775 1.8971 29.1775 4.23729C29.1775 6.57748 31.0746 8.47458 33.4148 8.47458Z" fill="#ECECEC"/>
<path fill-rule="evenodd" clip-rule="evenodd" d="M26.9869 42.681C27.6488 43.3429 30.8193 42.9405 31.9777 41.7821C33.136 40.6238 32.691 39.1482 32.0291 38.4863C31.3672 37.8244 29.0441 38.2268 27.8858 39.3852C26.7274 40.5435 26.325 42.0191 26.9869 42.681Z" fill="#595959"/>
<path fill-rule="evenodd" clip-rule="evenodd" d="M26.0963 42.6812C25.4344 43.3431 22.2639 42.9407 21.1056 41.7824C19.9472 40.624 20.3923 39.1484 21.0542 38.4865C21.7161 37.8246 24.0391 38.2271 25.1975 39.3854C26.3558 40.5437 26.7582 42.0193 26.0963 42.6812Z" fill="#595959"/>
<path d="M19.008 27.1186C20.8801 27.1186 22.3978 25.601 22.3978 23.7288C22.3978 21.8567 20.8801 20.339 19.008 20.339C17.1358 20.339 15.6182 21.8567 15.6182 23.7288C15.6182 25.601 17.1358 27.1186 19.008 27.1186Z" fill="white"/>
<path d="M19.008 25.4237C19.9441 25.4237 20.7029 24.6649 20.7029 23.7288C20.7029 22.7927 19.9441 22.0339 19.008 22.0339C18.0719 22.0339 17.3131 22.7927 17.3131 23.7288C17.3131 24.6649 18.0719 25.4237 19.008 25.4237Z" fill="#595959"/>
<path d="M33.4147 27.1186C35.2869 27.1186 36.8046 25.601 36.8046 23.7288C36.8046 21.8567 35.2869 20.339 33.4147 20.339C31.5426 20.339 30.0249 21.8567 30.0249 23.7288C30.0249 25.601 31.5426 27.1186 33.4147 27.1186Z" fill="white"/>
<path d="M33.4148 25.4237C34.3508 25.4237 35.1097 24.6649 35.1097 23.7288C35.1097 22.7927 34.3508 22.0339 33.4148 22.0339C32.4787 22.0339 31.7198 22.7927 31.7198 23.7288C31.7198 24.6649 32.4787 25.4237 33.4148 25.4237Z" fill="#595959"/>
</svg>
