<svg width="154" height="140" viewBox="0 0 154 140" fill="none" xmlns="http://www.w3.org/2000/svg">
<path fill-rule="evenodd" clip-rule="evenodd" d="M124.909 0.0805724C124.097 0.0271386 123.278 0 122.452 0C102.105 0 85.6104 16.4948 85.6104 36.8421C85.6104 57.1894 102.105 73.6842 122.452 73.6842C123.278 73.6842 124.097 73.6571 124.909 73.6036V0.0805724Z" fill="#D8D8D8"/>
<path fill-rule="evenodd" clip-rule="evenodd" d="M26.6637 0.0805724C27.4755 0.0271386 28.2945 0 29.1198 0C49.4671 0 65.9619 16.4948 65.9619 36.8421C65.9619 57.1894 49.4671 73.6842 29.1198 73.6842C28.2945 73.6842 27.4755 73.6571 26.6637 73.6036V0.0805724Z" fill="#D8D8D8"/>
<path d="M75.7873 140C109.7 140 137.191 112.509 137.191 78.5965C137.191 44.6843 109.7 17.193 75.7873 17.193C41.8751 17.193 14.3838 44.6843 14.3838 78.5965C14.3838 112.509 41.8751 140 75.7873 140Z" fill="#ECECEC"/>
<path d="M43.8564 63.8596C43.8564 69.2856 48.2551 73.6842 53.681 73.6842C59.107 73.6842 63.5056 69.2856 63.5056 63.8596M85.6108 63.8596C85.6108 69.2856 90.0094 73.6842 95.4354 73.6842C100.861 73.6842 105.26 69.2856 105.26 63.8596M56.1371 100.702C56.1371 106.128 60.5358 110.526 65.9617 110.526C71.3877 110.526 75.7863 106.128 75.7863 100.702M75.7863 100.702C75.7863 106.128 80.1849 110.526 85.6108 110.526C91.0368 110.526 95.4354 106.128 95.4354 100.702" stroke="#979797" stroke-width="2.35614" stroke-linecap="round"/>
<path fill-rule="evenodd" clip-rule="evenodd" d="M75.7856 103.158L88.0663 85.9649L80.6365 81.0526H71.0821L63.5049 85.9649L75.7856 103.158Z" fill="#595959"/>
<path d="M31.5758 76.1404H2M31.5758 85.9649H2M31.5758 95.7895H2M151.927 76.1404H122.351M151.927 85.9649H122.351M151.927 95.7895H122.351" stroke="#D8D8D8" stroke-width="2.35614" stroke-linecap="square"/>
</svg>
