<svg width="50" height="46" viewBox="0 0 50 46" fill="none" xmlns="http://www.w3.org/2000/svg">
<path fill-rule="evenodd" clip-rule="evenodd" d="M40.5173 15.5172C44.3261 15.5172 48.2759 10.7054 48.2759 6.89655C48.2759 3.08769 45.1882 0 41.3793 0C37.5705 0 33.6207 4.81183 33.6207 8.62069C33.6207 12.4296 36.7084 15.5172 40.5173 15.5172Z" fill="#595959"/>
<path fill-rule="evenodd" clip-rule="evenodd" d="M12.9311 15.5172C9.12222 15.5172 5.17246 10.7054 5.17246 6.89655C5.17246 3.08769 8.26016 0 12.069 0C15.8779 0 19.8276 4.81183 19.8276 8.62069C19.8276 12.4296 16.7399 15.5172 12.9311 15.5172Z" fill="#595959"/>
<path fill-rule="evenodd" clip-rule="evenodd" d="M25 39.6552C36.4266 39.6552 50 37.1084 50 27.5862C50 18.0641 36.4266 2.58621 25 2.58621C13.5734 2.58621 0 18.0641 0 27.5862C0 37.1084 13.5734 39.6552 25 39.6552Z" fill="#ECECEC"/>
<path fill-rule="evenodd" clip-rule="evenodd" d="M15.0199 31.0345C18.0413 31.0345 19.9022 27.7133 21.4854 24.0716C23.0686 20.4299 20.0307 18.1035 17.0093 18.1035C13.9878 18.1035 9.54907 20.2261 9.54907 24.0716C9.54907 27.9171 11.9984 31.0345 15.0199 31.0345Z" fill="#595959"/>
<path d="M18.1034 23.2759C19.0556 23.2759 19.8275 22.5039 19.8275 21.5517C19.8275 20.5995 19.0556 19.8276 18.1034 19.8276C17.1512 19.8276 16.3793 20.5995 16.3793 21.5517C16.3793 22.5039 17.1512 23.2759 18.1034 23.2759Z" fill="white"/>
<path fill-rule="evenodd" clip-rule="evenodd" d="M35.8419 31.0345C32.8205 31.0345 30.9656 28.0289 29.3764 24.0716C27.7872 20.1144 30.8311 18.1035 33.8525 18.1035C36.874 18.1035 41.3127 20.2261 41.3127 24.0716C41.3127 27.9171 38.8634 31.0345 35.8419 31.0345Z" fill="#595959"/>
<path fill-rule="evenodd" clip-rule="evenodd" d="M25 45.6896C28.8088 45.6896 33.6207 42.602 33.6207 38.7931C33.6207 34.9842 28.8088 31.8965 25 31.8965C21.1911 31.8965 16.3793 34.9842 16.3793 38.7931C16.3793 42.602 21.1911 45.6896 25 45.6896Z" fill="#ECECEC"/>
<path d="M32.7586 23.2759C33.7108 23.2759 34.4827 22.5039 34.4827 21.5517C34.4827 20.5995 33.7108 19.8276 32.7586 19.8276C31.8063 19.8276 31.0344 20.5995 31.0344 21.5517C31.0344 22.5039 31.8063 23.2759 32.7586 23.2759Z" fill="white"/>
<path d="M17.2413 38.7931C17.2413 40.2214 18.9782 41.3793 21.1206 41.3793C23.2631 41.3793 25 40.2214 25 38.7931M25 38.7931C25 40.2214 26.7368 41.3793 28.8793 41.3793C31.0217 41.3793 32.7586 40.2214 32.7586 38.7931" stroke="#595959" stroke-width="2.4797" stroke-linecap="round"/>
<path fill-rule="evenodd" clip-rule="evenodd" d="M26.6508 38.2795C25.7391 39.0393 24.259 39.0376 23.3492 38.2795L21.4784 36.7205C20.5667 35.9607 20.8008 35.3448 21.9837 35.3448H28.0164C29.2072 35.3448 29.4314 35.9624 28.5217 36.7205L26.6508 38.2795Z" fill="#595959"/>
</svg>
