<svg width="54" height="47" viewBox="0 0 54 47" fill="none" xmlns="http://www.w3.org/2000/svg">
<path fill-rule="evenodd" clip-rule="evenodd" d="M42.9897 0.0268706C42.719 0.00905062 42.4459 0 42.1706 0C35.3849 0 29.8839 5.50094 29.8839 12.2867C29.8839 19.0725 35.3849 24.5734 42.1706 24.5734C42.4459 24.5734 42.719 24.5644 42.9897 24.5465V0.0268706Z" fill="#D8D8D8"/>
<path fill-rule="evenodd" clip-rule="evenodd" d="M10.2252 0.0268706C10.496 0.00905062 10.7691 0 11.0444 0C17.8301 0 23.3311 5.50094 23.3311 12.2867C23.3311 19.0725 17.8301 24.5734 11.0444 24.5734C10.7691 24.5734 10.496 24.5644 10.2252 24.5465V0.0268706Z" fill="#D8D8D8"/>
<path d="M26.6075 46.6894C37.9171 46.6894 47.0853 37.5212 47.0853 26.2116C47.0853 14.902 37.9171 5.73376 26.6075 5.73376C15.2979 5.73376 6.12964 14.902 6.12964 26.2116C6.12964 37.5212 15.2979 46.6894 26.6075 46.6894Z" fill="#ECECEC"/>
<path d="M15.959 21.2969C15.959 23.1065 17.4259 24.5734 19.2354 24.5734C21.045 24.5734 22.5119 23.1065 22.5119 21.2969M29.8839 21.2969C29.8839 23.1065 31.3508 24.5734 33.1604 24.5734C34.9699 24.5734 36.4368 23.1065 36.4368 21.2969M20.0546 33.5836C20.0546 35.3932 21.5215 36.8601 23.331 36.8601C25.1405 36.8601 26.6075 35.3932 26.6075 33.5836M26.6075 33.5836C26.6075 35.3932 28.0744 36.8601 29.8839 36.8601C31.6935 36.8601 33.1604 35.3932 33.1604 33.5836" stroke="#979797" stroke-width="2.35614" stroke-linecap="round"/>
<path fill-rule="evenodd" clip-rule="evenodd" d="M26.6075 34.4028L30.7031 28.669L28.2253 27.0307H25.0389L22.512 28.669L26.6075 34.4028Z" fill="#595959"/>
<path d="M11.8634 25.3925H2M11.8634 28.669H2M11.8634 31.9454H2M52 25.3925H42.1366M52 28.669H42.1366M52 31.9454H42.1366" stroke="#D8D8D8" stroke-width="2.35614" stroke-linecap="square"/>
</svg>
