<svg width="50" height="49" viewBox="0 0 50 49" fill="none" xmlns="http://www.w3.org/2000/svg">
<path fill-rule="evenodd" clip-rule="evenodd" d="M38.5878 5.02612C39.3316 2.25027 42.1934 0.605261 44.9673 1.3485C47.7467 2.09326 49.3959 4.95129 48.6532 7.72312L43.9317 25.3441L33.8663 22.6471L38.5878 5.02612Z" fill="#979797"/>
<path fill-rule="evenodd" clip-rule="evenodd" d="M11.4122 5.02618C10.6684 2.25033 7.80657 0.605322 5.03275 1.34856C2.25327 2.09332 0.604099 4.95135 1.34681 7.72319L6.06833 25.3441L16.1337 22.6471L11.4122 5.02618Z" fill="#979797"/>
<path d="M25.1827 48.6287C37.652 48.6287 47.7603 40.4643 47.7603 30.393C47.7603 20.3217 37.652 12.1572 25.1827 12.1572C12.7134 12.1572 2.6051 20.3217 2.6051 30.393C2.6051 40.4643 12.7134 48.6287 25.1827 48.6287Z" fill="#D8D8D8"/>
<path d="M13.8938 24.3145C13.8938 26.2328 15.4489 27.7879 17.3673 27.7879C19.2856 27.7879 20.8408 26.2328 20.8408 24.3145M29.5244 24.3145C29.5244 26.2328 31.0796 27.7879 32.9979 27.7879C34.9163 27.7879 36.4714 26.2328 36.4714 24.3145" stroke="#979797" stroke-width="2.49782" stroke-linecap="round"/>
<path fill-rule="evenodd" clip-rule="evenodd" d="M20.8408 34.7349H29.5245V46.0237H20.8408V34.7349Z" fill="white" stroke="#979797" stroke-width="2.49782" stroke-linecap="round"/>
<path d="M25.1826 45.1553V36.4716" stroke="#979797" stroke-width="2.49782" stroke-linecap="square"/>
<path fill-rule="evenodd" clip-rule="evenodd" d="M26.0509 33.8665C26.0509 36.2645 27.9948 38.2084 30.3928 38.2084C32.7907 38.2084 34.7346 36.2645 34.7346 33.8665M15.6305 33.8665C15.6305 36.2645 17.5744 38.2084 19.9723 38.2084C22.3703 38.2084 24.3142 36.2645 24.3142 33.8665" fill="#D8D8D8"/>
<path d="M26.0509 33.8665C26.0509 36.2645 27.9948 38.2084 30.3928 38.2084C32.7907 38.2084 34.7346 36.2645 34.7346 33.8665M15.6305 33.8665C15.6305 36.2645 17.5744 38.2084 19.9723 38.2084C22.3703 38.2084 24.3142 36.2645 24.3142 33.8665" stroke="#979797" stroke-width="2.49782" stroke-linecap="round"/>
<path fill-rule="evenodd" clip-rule="evenodd" d="M21.7092 31.2614C21.7092 33.1797 23.2644 34.7348 25.1827 34.7348C27.1011 34.7348 28.6562 33.1797 28.6562 31.2614H21.7092Z" fill="#979797"/>
</svg>
